<?xml version="1.0" encoding="utf-8"?>
<!-- Generator: Adobe Illustrator 21.0.2, SVG Export Plug-In . SVG Version: 6.00 Build 0)  -->
<svg version="1.1" id="Layer_1" xmlns="http://www.w3.org/2000/svg" xmlns:xlink="http://www.w3.org/1999/xlink" x="0px" y="0px"
	 viewBox="0 0 162.2 32" style="enable-background:new 0 0 162.2 32;" xml:space="preserve">
<style type="text/css">
	.st0{fill:#FFFFFF;}
</style>
<g>
	<g>
		<path class="st0" d="M-3,32h35.9L15,1L-3,32z M0.9,29.7L15,5.5L29,29.7H0.9z"/>
	</g>
	<g>
		<path class="st0" d="M39.6,31l18-31L21.6,0L39.6,31z M39.6,26.5L25.5,2.3h28.1L39.6,26.5z"/>
	</g>
	<g>
		<path class="st0" d="M60.7,29.4L66,15.6h2l5.6,13.8h-2.1l-1.6-4.2h-5.8l-1.5,4.2H60.7z M64.6,23.7h4.7l-1.4-3.8
			c-0.4-1.2-0.8-2.1-1-2.9c-0.2,0.9-0.4,1.8-0.7,2.6L64.6,23.7z"/>
		<path class="st0" d="M74,17.2v-1.6h10.9v1.6h-4.6v12.2h-1.8V17.2H74z"/>
		<path class="st0" d="M86.2,22.6c0-2.3,0.6-4.1,1.8-5.4c1.2-1.3,2.8-1.9,4.8-1.9c1.3,0,2.4,0.3,3.4,0.9c1,0.6,1.8,1.5,2.3,2.5
			s0.8,2.3,0.8,3.7c0,1.4-0.3,2.7-0.8,3.8c-0.6,1.1-1.4,1.9-2.4,2.5c-1,0.6-2.2,0.9-3.3,0.9c-1.3,0-2.5-0.3-3.5-0.9
			c-1-0.6-1.8-1.5-2.3-2.6C86.5,25,86.2,23.9,86.2,22.6z M88.1,22.7c0,1.7,0.4,3,1.3,3.9c0.9,1,2,1.4,3.4,1.4c1.4,0,2.5-0.5,3.4-1.4
			c0.9-1,1.3-2.3,1.3-4.1c0-1.1-0.2-2.1-0.6-2.9c-0.4-0.8-0.9-1.5-1.7-1.9s-1.6-0.7-2.5-0.7c-1.3,0-2.4,0.4-3.3,1.3
			C88.6,19.1,88.1,20.6,88.1,22.7z"/>
		<path class="st0" d="M101.7,29.4V15.6h2.7l3.3,9.8c0.3,0.9,0.5,1.6,0.7,2c0.2-0.5,0.4-1.2,0.7-2.2l3.3-9.6h2.4v13.8h-1.7V17.8
			l-4,11.5h-1.6l-4-11.7v11.7H101.7z"/>
		<path class="st0" d="M116.6,15.6h1.9l2.1,9c0.2,0.9,0.4,1.9,0.6,2.8c0.4-1.5,0.6-2.3,0.6-2.5l2.6-9.3h2.2l2,7
			c0.5,1.7,0.9,3.4,1.1,4.9c0.2-0.9,0.4-1.9,0.7-3l2.2-8.9h1.8l-3.8,13.8h-1.8l-2.9-10.5c-0.2-0.9-0.4-1.4-0.4-1.6
			c-0.1,0.6-0.3,1.2-0.4,1.6l-2.9,10.5h-1.9L116.6,15.6z"/>
		<path class="st0" d="M136,29.4V15.6h10v1.6h-8.1v4.2h7.6V23h-7.6v4.7h8.5v1.6H136z"/>
		<path class="st0" d="M148.8,29.4V15.6h5.2c1.1,0,1.9,0.1,2.5,0.4c0.6,0.3,1.1,0.7,1.5,1.3c0.4,0.6,0.5,1.2,0.5,1.8
			c0,0.6-0.2,1.1-0.5,1.7c-0.3,0.5-0.8,0.9-1.4,1.3c0.8,0.2,1.5,0.7,1.9,1.3c0.4,0.6,0.7,1.3,0.7,2.1c0,0.6-0.1,1.2-0.4,1.8
			c-0.3,0.6-0.6,1-1,1.3s-0.9,0.5-1.5,0.7c-0.6,0.2-1.3,0.2-2.2,0.2H148.8z M150.6,21.4h3c0.8,0,1.4-0.1,1.7-0.2
			c0.5-0.1,0.8-0.4,1-0.7c0.2-0.3,0.4-0.7,0.4-1.2c0-0.5-0.1-0.9-0.3-1.2c-0.2-0.3-0.5-0.6-0.9-0.7c-0.4-0.1-1.1-0.2-2.1-0.2h-2.8
			V21.4z M150.6,27.7h3.4c0.6,0,1,0,1.2-0.1c0.4-0.1,0.8-0.2,1.1-0.4c0.3-0.2,0.5-0.4,0.7-0.8c0.2-0.3,0.3-0.7,0.3-1.2
			c0-0.5-0.1-1-0.4-1.3c-0.3-0.4-0.6-0.6-1.1-0.8c-0.5-0.2-1.1-0.2-2-0.2h-3.2V27.7z"/>
	</g>
</g>
</svg>
